<?xml version="1.0" standalone="no"?>
<!DOCTYPE svg PUBLIC "-//W3C//DTD SVG 20010904//EN"
 "http://www.w3.org/TR/2001/REC-SVG-20010904/DTD/svg10.dtd">
<svg version="1.0" xmlns="http://www.w3.org/2000/svg"
 width="1604.000000pt" height="1604.000000pt" viewBox="0 0 1604.000000 1604.000000"
 preserveAspectRatio="xMidYMid meet">
<metadata>
Created by potrace 1.14, written by Peter Selinger 2001-2017
</metadata>
<g transform="translate(0.000000,1604.000000) scale(0.100000,-0.100000)"
fill="#000000" stroke="none">
<path d="M4600 11265 l0 -355 1024 -2 1025 -3 -1210 -2115 c-666 -1163 -1217
-2127 -1225 -2142 l-15 -28 1821 0 1820 0 0 355 0 355 -1195 0 c-657 0 -1195
2 -1195 4 0 3 2421 4238 2444 4275 5 8 -429 11 -1643 11 l-1651 0 0 -355z"/>
<path d="M8720 9120 l0 -2502 738 5 c769 4 825 7 1075 52 160 29 226 50 353
109 407 192 713 593 785 1031 22 131 17 409 -9 532 -56 261 -166 474 -335 650
-123 129 -234 206 -397 277 -47 21 -87 40 -89 42 -2 2 31 40 73 84 137 144
239 325 286 509 92 362 11 794 -214 1130 -219 328 -510 493 -981 557 -108 14
-229 18 -707 21 l-578 5 0 -2502z m1275 1780 c260 -57 430 -214 497 -457 31
-112 31 -362 0 -476 -60 -219 -193 -366 -394 -433 -117 -39 -240 -54 -440 -54
l-178 0 0 727 0 726 213 -6 c156 -5 236 -12 302 -27z m110 -2070 c300 -29 486
-100 625 -240 132 -133 196 -278 207 -465 20 -348 -192 -638 -537 -734 -153
-42 -253 -52 -592 -58 l-328 -6 0 756 0 757 258 0 c141 0 307 -5 367 -10z"/>
</g>
</svg>
